<svg width="185" height="32" viewBox="0 0 185 32" fill="none" xmlns="http://www.w3.org/2000/svg">
<path d="M32.3301 0L0 32L32.3301 14.6542V0Z" fill="#CC5A07"/>
<path d="M0 32H15.1075L32.3301 14.6542L0 32Z" fill="#AC4902"/>
<path d="M64.6602 32L32.3301 0V14.6542L64.6602 32Z" fill="#FF6B00"/>
<path d="M32.3301 14.6542L49.8548 32H64.6602L32.3301 14.6542Z" fill="#CC5600"/>
<path d="M32.3301 21.2336L21.7548 32H32.4812L32.3301 21.2336Z" fill="#D8AF9C"/>
<path d="M43.2075 32L32.3301 21.2336L35.3516 32H43.2075Z" fill="#F7D1BF"/>
<path d="M32.3301 21.2336L32.4812 32H35.3516L32.3301 21.2336Z" fill="#FFEADF"/>
<path d="M65.5582 10.7326V8.26024H79.8498V10.7326H74.0881V27.2953H71.3109V10.7326H65.5582Z" fill="#232432"/>
<path d="M94.2172 27.2953L88.0137 18.763H86.048V27.2953H83.2618V8.26024H86.048V16.3H86.9587L93.9377 8.26024H97.337L89.9523 16.7833L97.6165 27.2953H94.2172Z" fill="#232432"/>
<path d="M110.211 8.26024V27.2953H107.425V8.26024H110.211Z" fill="#232432"/>
<path d="M114.523 27.2953V8.26024H117.309V16.5323H126.515V8.26024H129.31V27.2953H126.515V18.9954H117.309V27.2953H114.523Z" fill="#232432"/>
<path d="M149.663 17.7778C149.663 19.8102 149.302 21.5575 148.581 23.0199C147.859 24.476 146.87 25.5975 145.614 26.3845C144.364 27.1652 142.942 27.5556 141.349 27.5556C139.75 27.5556 138.323 27.1652 137.066 26.3845C135.816 25.5975 134.83 24.4729 134.109 23.0106C133.387 21.5482 133.027 19.804 133.027 17.7778C133.027 15.7454 133.387 14.0011 134.109 12.545C134.83 11.0827 135.816 9.96113 137.066 9.1804C138.323 8.39347 139.75 8 141.349 8C142.942 8 144.364 8.39347 145.614 9.1804C146.87 9.96113 147.859 11.0827 148.581 12.545C149.302 14.0011 149.663 15.7454 149.663 17.7778ZM146.903 17.7778C146.903 16.2287 146.66 14.9244 146.173 13.8648C145.692 12.799 145.031 11.9935 144.189 11.4482C143.354 10.8968 142.407 10.621 141.349 10.621C140.285 10.621 139.335 10.8968 138.5 11.4482C137.664 11.9935 137.003 12.799 136.516 13.8648C136.035 14.9244 135.795 16.2287 135.795 17.7778C135.795 19.3269 136.035 20.6343 136.516 21.7C137.003 22.7596 137.664 23.5651 138.5 24.1166C139.335 24.6619 140.285 24.9345 141.349 24.9345C142.407 24.9345 143.354 24.6619 144.189 24.1166C145.031 23.5651 145.692 22.7596 146.173 21.7C146.66 20.6343 146.903 19.3269 146.903 17.7778Z" fill="#232432"/>
<path d="M164.346 27.2953L158.142 18.763H156.176V27.2953H153.39V8.26024H156.176V16.3H157.087L164.066 8.26024H167.465L160.081 16.7833L167.745 27.2953H164.346Z" fill="#232432"/>
<path d="M185 14.4504H182.187C182.079 13.8307 181.877 13.2855 181.583 12.8145C181.288 12.3436 180.927 11.944 180.501 11.6155C180.074 11.2871 179.596 11.0393 179.067 10.872C178.544 10.7047 177.988 10.621 177.399 10.621C176.335 10.621 175.382 10.8968 174.541 11.4482C173.705 11.9997 173.044 12.8083 172.557 13.8741C172.076 14.9399 171.835 16.2411 171.835 17.7778C171.835 19.3269 172.076 20.6343 172.557 21.7C173.044 22.7658 173.708 23.5713 174.55 24.1166C175.391 24.6619 176.338 24.9345 177.39 24.9345C177.973 24.9345 178.526 24.854 179.049 24.6929C179.578 24.5256 180.056 24.2808 180.483 23.9586C180.909 23.6364 181.27 23.2429 181.565 22.7782C181.865 22.3073 182.073 21.7682 182.187 21.161L185 21.1703C184.85 22.1059 184.558 22.9672 184.125 23.7541C183.699 24.5349 183.149 25.2103 182.475 25.7803C181.808 26.3442 181.045 26.781 180.185 27.0908C179.325 27.4006 178.388 27.5556 177.372 27.5556C175.773 27.5556 174.348 27.1652 173.098 26.3845C171.848 25.5975 170.862 24.4729 170.14 23.0106C169.425 21.5482 169.067 19.804 169.067 17.7778C169.067 15.7454 169.428 14.0011 170.149 12.545C170.871 11.0827 171.857 9.96113 173.107 9.1804C174.357 8.39347 175.779 8 177.372 8C178.352 8 179.265 8.14561 180.113 8.43684C180.966 8.72187 181.733 9.14322 182.412 9.70089C183.091 10.2524 183.653 10.9278 184.098 11.7271C184.543 12.5202 184.844 13.428 185 14.4504Z" fill="#232432"/>
</svg>
