<?xml version="1.0" encoding="utf-8"?><svg xmlns="http://www.w3.org/2000/svg" xmlns:xlink="http://www.w3.org/1999/xlink"><symbol viewBox="0 0 21 9" id="arrow-r" xmlns="http://www.w3.org/2000/svg"><path d="M20.354 4.854a.5.5 0 0 0 0-.708L17.172.964a.5.5 0 1 0-.707.708L19.293 4.5l-2.828 2.828a.5.5 0 1 0 .707.708l3.182-3.182ZM0 5h20V4H0v1Z"/></symbol><symbol viewBox="0 0 320 512" id="cross" xmlns="http://www.w3.org/2000/svg"><!--! Font Awesome Pro 6.3.0 by @fontawesome - https://fontawesome.com License - https://fontawesome.com/license (Commercial License) Copyright 2023 Fonticons, Inc.--><path d="M310.6 150.6c12.5-12.5 12.5-32.8 0-45.3s-32.8-12.5-45.3 0L160 210.7 54.6 105.4c-12.5-12.5-32.8-12.5-45.3 0s-12.5 32.8 0 45.3L114.7 256 9.4 361.4c-12.5 12.5-12.5 32.8 0 45.3s32.8 12.5 45.3 0L160 301.3l105.4 105.3c12.5 12.5 32.8 12.5 45.3 0s12.5-32.8 0-45.3L205.3 256l105.3-105.4z"/></symbol><symbol viewBox="0 0 16 16" id="location" xmlns="http://www.w3.org/2000/svg"><g clip-path="url(#ca)"><path d="M8 0a6.008 6.008 0 0 0-6 6c0 4.307 5.59 9.703 5.827 9.93a.247.247 0 0 0 .345 0C8.41 15.703 14 10.307 14 6a6.008 6.008 0 0 0-6-6Zm0 8.75a2.75 2.75 0 1 1 0-5.5 2.75 2.75 0 0 1 0 5.5Z"/></g><defs><clipPath id="ca"><path d="M0 0h16v16H0z"/></clipPath></defs></symbol><symbol viewBox="0 0 16 17" id="mail" xmlns="http://www.w3.org/2000/svg"><path d="M14.735 6.967a.165.165 0 0 1 .265.129v5.591c0 .725-.588 1.313-1.313 1.313H2.313A1.313 1.313 0 0 1 1 12.687V7.098c0-.136.156-.213.265-.128.613.476 1.425 1.08 4.214 3.106.577.421 1.55 1.307 2.521 1.302.976.008 1.969-.897 2.524-1.302 2.789-2.026 3.598-2.633 4.21-3.109ZM8 10.5c.634.01 1.548-.798 2.007-1.132 3.629-2.633 3.905-2.863 4.741-3.52A.654.654 0 0 0 15 5.333v-.52c0-.724-.588-1.312-1.313-1.312H2.313A1.311 1.311 0 0 0 1 4.813v.519c0 .202.093.391.252.517.836.653 1.112.886 4.741 3.519.46.334 1.373 1.143 2.007 1.132Z"/></symbol></svg>