<svg width="26" height="27" viewBox="0 0 26 27" fill="none" xmlns="http://www.w3.org/2000/svg">
<path d="M25.13 6.66414V6.63312C24.8484 5.49244 24.1134 4.31357 23.1493 3.32085C22.0229 2.1563 20.5887 1.24232 19.2189 0.946415H19.1903C15.1054 0.163695 10.9091 0.163695 6.82416 0.946415H6.79553C4.25166 1.49767 1.49064 4.15607 0.874959 6.63312V6.66414C0.118503 10.0983 0.118503 13.656 0.874959 17.0902V17.1188C1.31405 18.8847 2.84132 20.7413 4.60246 21.8629C5.17761 22.2377 5.80368 22.5278 6.46144 22.7244V25.4878C6.46236 25.7086 6.52903 25.9242 6.65293 26.107C6.77683 26.2898 6.95235 26.4316 7.15714 26.5143C7.36192 26.597 7.58668 26.6168 7.80278 26.5713C8.01888 26.5257 8.21652 26.4169 8.37053 26.2586L11.1721 23.3472C11.7783 23.3806 12.3892 23.3997 12.9953 23.3997C15.0702 23.3991 17.1404 23.2025 19.1784 22.8127H19.207C21.7437 22.259 24.5071 19.6006 25.118 17.1236V17.0949C25.8791 13.6601 25.8832 10.1007 25.13 6.66414ZM22.913 16.5795C22.5026 18.1951 20.4073 20.2068 18.7393 20.5766C16.5727 20.9917 14.3677 21.1717 12.1625 21.1136C12.141 21.1123 12.1195 21.1159 12.0996 21.1241C12.0798 21.1324 12.0621 21.1451 12.0479 21.1613L10.0028 23.2613L7.82644 25.4926C7.79162 25.5294 7.74656 25.5548 7.69709 25.5657C7.64762 25.5766 7.59601 25.5724 7.54896 25.5537C7.50191 25.5349 7.46158 25.5024 7.43319 25.4605C7.4048 25.4185 7.38966 25.369 7.38973 25.3183V20.7365C7.38979 20.6997 7.37692 20.664 7.35338 20.6356C7.32983 20.6073 7.2971 20.5881 7.26087 20.5814C6.91294 20.4988 6.57752 20.3704 6.26337 20.1996C4.84587 19.4431 3.41644 17.892 3.08712 16.5795C2.405 13.4753 2.405 10.26 3.08712 7.15573C3.49519 5.54732 5.60234 3.54039 7.25848 3.16812C11.051 2.44246 14.9467 2.44246 18.7393 3.16812C19.658 3.37335 20.708 4.07255 21.5289 4.93164C22.2043 5.63085 22.7221 6.43744 22.913 7.16289C23.5941 10.2648 23.5941 13.4776 22.913 16.5795Z" fill="white"/>
<path d="M18.7989 16.8182C18.4888 17.5257 17.9558 18.1124 17.2812 18.4886C17.0695 18.5785 16.8497 18.648 16.6249 18.6963C16.3696 18.6199 16.1262 18.5674 15.909 18.4743C14.1 17.7704 12.416 16.7801 10.9215 15.5415C10.4775 15.1629 10.0605 14.7538 9.67343 14.3173C8.71754 13.2165 7.91481 11.9915 7.28706 10.6757C6.98161 10.0529 6.72388 9.40853 6.46138 8.7666C6.22274 8.18194 6.57593 7.57342 6.93865 7.13672C7.29371 6.73171 7.73043 6.40641 8.22013 6.18217C8.39245 6.09557 8.58965 6.07202 8.77752 6.1156C8.96539 6.15919 9.13207 6.26717 9.24865 6.42081C9.85836 7.10583 10.3958 7.85194 10.8523 8.64728C10.9961 8.87855 11.0454 9.1563 10.9898 9.42291C10.9343 9.68952 10.7782 9.92451 10.554 10.0791C10.4347 10.1626 10.3154 10.2581 10.2127 10.3511C10.1116 10.4261 10.0244 10.5181 9.95502 10.6232C9.89519 10.7215 9.85889 10.8323 9.84895 10.947C9.83902 11.0617 9.85572 11.1771 9.89774 11.2842C10.3583 12.5514 11.0575 13.6085 12.1027 14.3507C12.4565 14.6008 12.8376 14.8098 13.2387 14.9735C13.5006 15.116 13.7949 15.1883 14.093 15.1835C14.6132 15.1215 14.785 14.5464 15.1477 14.2505C15.3142 14.1141 15.5203 14.0352 15.7352 14.0253C15.9502 14.0154 16.1626 14.0751 16.3409 14.1956C16.7275 14.4342 17.0998 14.7039 17.4721 14.9664C17.8403 15.2177 18.1948 15.4885 18.534 15.7777C18.6926 15.893 18.806 16.0601 18.8544 16.2501C18.9027 16.4402 18.8831 16.6411 18.7989 16.8182Z" fill="white"/>
<path d="M13.6849 5.38249H13.3794C13.4772 5.37772 13.5799 5.38249 13.6849 5.38249Z" fill="white"/>
<path d="M18.9661 12.5348C18.7274 12.5348 18.6105 12.332 18.5938 12.1101C18.5628 11.6733 18.5389 11.2343 18.4792 10.7999C18.3761 10.0672 18.1209 9.36404 17.7299 8.73573C17.3281 8.08119 16.7934 7.51827 16.1603 7.08336C15.5273 6.64846 14.81 6.35125 14.0549 6.21096C13.7113 6.14891 13.3605 6.1346 13.0145 6.0988C12.7949 6.07494 12.5062 6.06062 12.4584 5.78857C12.4513 5.73574 12.4555 5.68199 12.4708 5.63091C12.4861 5.57984 12.5122 5.53262 12.5472 5.49242C12.5822 5.45221 12.6254 5.41994 12.6739 5.39776C12.7224 5.37558 12.775 5.364 12.8283 5.3638C12.8856 5.3605 12.9429 5.3605 13.0001 5.3638C14.0432 5.37263 15.0681 5.63857 15.9838 6.13808C16.8996 6.63758 17.678 7.35522 18.2501 8.22744C18.7018 8.93047 19.0085 9.71665 19.1522 10.5398C19.2429 11.0553 19.2763 11.5851 19.3169 12.1101C19.325 12.1615 19.3221 12.2141 19.3084 12.2644C19.2947 12.3146 19.2704 12.3614 19.2372 12.4015C19.2041 12.4417 19.1627 12.4744 19.116 12.4973C19.0692 12.5203 19.0181 12.5331 18.9661 12.5348Z" fill="white"/>
<path d="M17.6751 11.4203C17.6737 11.4912 17.6641 11.5617 17.6464 11.6303C17.6256 11.6993 17.584 11.7602 17.5273 11.8048C17.4706 11.8493 17.4016 11.8753 17.3296 11.8792C17.2577 11.8831 17.1863 11.8647 17.1251 11.8266C17.0639 11.7885 17.016 11.7325 16.9878 11.6661C16.9615 11.5698 16.9495 11.4701 16.952 11.3702C16.9575 10.8365 16.8519 10.3074 16.6418 9.81671C16.594 9.71171 16.5415 9.60432 16.4819 9.5017C16.1403 8.91292 15.6333 8.43745 15.0238 8.13432C14.6561 7.96071 14.2656 7.84019 13.864 7.77636C13.6874 7.74773 13.5108 7.73102 13.3343 7.70716C13.2883 7.70485 13.2433 7.69314 13.202 7.67275C13.1608 7.65235 13.1241 7.62371 13.0944 7.5886C13.0646 7.55348 13.0424 7.51263 13.0291 7.46858C13.0157 7.42454 13.0116 7.37822 13.0169 7.3325C13.0169 7.28573 13.0268 7.2395 13.046 7.19683C13.0651 7.15417 13.0931 7.11604 13.128 7.08494C13.1629 7.05384 13.204 7.03048 13.2486 7.01639C13.2932 7.0023 13.3403 6.9978 13.3868 7.00318C14.0875 7.03022 14.7739 7.20937 15.3985 7.52818C16.1611 7.91197 16.7833 8.5266 17.1763 9.28455C17.3977 9.7271 17.5459 10.2026 17.6154 10.6925C17.6283 10.7564 17.6378 10.8209 17.644 10.8858C17.656 11.029 17.6607 11.1722 17.6727 11.3488C17.6727 11.3655 17.6751 11.3869 17.6751 11.4203Z" fill="white"/>
<path d="M16.0403 11.0909C16.0268 11.1514 15.9955 11.2064 15.9504 11.249C15.9054 11.2915 15.8486 11.3195 15.7874 11.3295H15.7349C15.6567 11.3346 15.579 11.314 15.5135 11.2709C15.4481 11.2279 15.3985 11.1647 15.3722 11.0909C15.3573 11.0517 15.3477 11.0108 15.3435 10.9692C15.331 10.8086 15.3071 10.6491 15.2719 10.4919C15.201 10.1737 15.0202 9.8906 14.7612 9.69246C14.6361 9.60258 14.4965 9.53478 14.3484 9.492C14.1599 9.43712 13.9618 9.45143 13.7757 9.40609C13.6837 9.38979 13.6019 9.33769 13.5482 9.2612C13.4945 9.18472 13.4734 9.09009 13.4893 8.99802C13.5071 8.90983 13.5564 8.83114 13.628 8.77667C13.6996 8.72221 13.7886 8.6957 13.8783 8.70211C14.9713 8.78086 15.7874 9.30586 15.9974 10.4776C16.019 10.5864 16.0341 10.6963 16.0427 10.8069C16.0561 10.9011 16.0553 10.9969 16.0403 11.0909Z" fill="white"/>
</svg>
