<svg width="16" height="17" viewBox="0 0 16 17" fill="none" xmlns="http://www.w3.org/2000/svg">
<path d="M14.7348 6.96719C14.8414 6.88242 15 6.96172 15 7.0957V12.6875C15 13.4121 14.4121 14 13.6875 14H2.3125C1.58789 14 1 13.4121 1 12.6875V7.09844C1 6.96172 1.15586 6.88516 1.26523 6.96992C1.87773 7.4457 2.68984 8.05 5.47891 10.0762C6.05586 10.4973 7.0293 11.3832 8 11.3777C8.97617 11.3859 9.96875 10.4809 10.5238 10.0762C13.3129 8.05 14.1223 7.44297 14.7348 6.96719ZM8 10.5C8.63438 10.5109 9.54766 9.70156 10.007 9.36797C13.6355 6.73477 13.9117 6.50508 14.7484 5.84883C14.907 5.72578 15 5.53438 15 5.33203V4.8125C15 4.08789 14.4121 3.5 13.6875 3.5H2.3125C1.58789 3.5 1 4.08789 1 4.8125V5.33203C1 5.53438 1.09297 5.72305 1.25156 5.84883C2.08828 6.50234 2.36445 6.73477 5.99297 9.36797C6.45234 9.70156 7.36562 10.5109 8 10.5Z" fill="#222326"/>
</svg>
